<?xml version="1.0" encoding="utf-8"?>
<!-- Generator: Adobe Illustrator 24.0.0, SVG Export Plug-In . SVG Version: 6.00 Build 0)  -->
<svg version="1.1" xmlns="http://www.w3.org/2000/svg" xmlns:xlink="http://www.w3.org/1999/xlink" x="0px" y="0px"
	 viewBox="0 0 698 698" style="enable-background:new 0 0 698 698;" xml:space="preserve">
<style type="text/css">
	.st0{display:none;}
	.st1{display:inline;opacity:0.5;}
	.st2{fill:url(#SVGID_1_);}
	.st3{display:inline;fill:#F5F5F5;}
	.st4{display:inline;fill:#6C63FF;}
	.st5{display:inline;fill:#333333;}
	.st6{display:inline;opacity:0.1;enable-background:new    ;}
	.st7{display:inline;fill:#FDB797;}
	.st8{display:inline;}
	.st9{font-family:'MyriadPro-Regular';}
	.st10{font-size:72px;}
	.st11{display:inline;fill:url(#SVGID_2_);}
	.st12{display:inline;fill:#DBDBDB;}
	.st13{display:none;opacity:0.42;}
	.st14{display:none;fill:#303030;}
	.st15{fill:url(#SVGID_3_);}
	.st16{fill:url(#SVGID_4_);}
</style>
<g id="_x34_57bf273-24a3-4fd8-a857-e9b918267d6a" class="st0">
	<title>profile pic</title>
	<g class="st1">
		
			<linearGradient id="SVGID_1_" gradientUnits="userSpaceOnUse" x1="349" y1="2" x2="349" y2="700" gradientTransform="matrix(1 0 0 -1 0 700)">
			<stop  offset="0" style="stop-color:#808080;stop-opacity:0.25"/>
			<stop  offset="0.54" style="stop-color:#808080;stop-opacity:0.12"/>
			<stop  offset="1" style="stop-color:#808080;stop-opacity:0.1"/>
		</linearGradient>
		<circle class="st2" cx="349" cy="349" r="349"/>
	</g>
	<circle class="st3" cx="349.7" cy="346.8" r="341.6"/>
	<path class="st4" d="M350,689.8c66.8,0.1,132.1-19.4,187.8-56.2c-12.6-68.8-60.5-72.7-60.5-72.7H213.1c0,0-45.2,3.7-59.3,67
		C211.2,668.3,279.8,689.9,350,689.8z"/>
	<circle class="st5" cx="346.4" cy="339.6" r="164.9"/>
	<path class="st6" d="M293.1,476.9h105.7l0,0v84.5c0,29.2-23.6,52.8-52.8,52.8l0,0c-29.2,0-52.8-23.7-52.8-52.8c0,0,0,0,0,0
		L293.1,476.9L293.1,476.9L293.1,476.9z"/>
	<path class="st7" d="M296.5,473h99c1.9,0,3.4,1.5,3.4,3.4l0,0v81.2c0,29.2-23.6,52.8-52.8,52.8c0,0,0,0,0,0l0,0
		c-29.2,0-52.8-23.7-52.8-52.8c0,0,0,0,0,0v-81.2C293.2,474.5,294.7,473,296.5,473z"/>
	<path class="st6" d="M293.3,516.8c34.1,12.7,71.5,12.8,105.7,0.3v-13H293.3V516.8z"/>
	<circle class="st7" cx="346.4" cy="372.4" r="151.5"/>
	<path class="st6" d="M238.5,234.7c0,0,63.8,129.6,243.9,54.3l-41.9-65.7l-74.3-26.7L238.5,234.7z"/>
	<path class="st5" d="M238.5,232.8c0,0,63.8,129.6,243.9,54.3l-41.9-65.7l-74.3-26.7L238.5,232.8z"/>
	<path class="st5" d="M237.9,224c4.3-13.3,11.7-25.4,21.7-35.3c29.8-29.5,78.6-35.7,103.7-69.2c6,9.3,1.4,23.6-9,27.6
		c24-0.2,51.8-2.3,65.4-22c6.8,15.9,3.9,34.4-7.6,47.4c21.3,1,44,15.4,45.3,36.6c0.9,14.2-8,27.6-19.6,35.7s-25.7,11.9-39.6,14.9
		C357.9,268.7,211.5,306.1,237.9,224z"/>
	<ellipse class="st7" cx="194.9" cy="372.3" rx="14.1" ry="26.4"/>
	<ellipse class="st7" cx="497.8" cy="372.3" rx="14.1" ry="26.4"/>
</g>
<g id="Camada_2" class="st0">
	<path class="st8" d="M497.2,97.3L350.7,45.7c-1.1-0.4-2.3-0.4-3.3,0L200.8,97.3c-2,0.7-3.3,2.6-3.3,4.7c0,52.3,13.8,112.7,38,165.8
		c19.6,43.1,54.8,100.5,111.2,129.6c0.7,0.4,1.5,0.6,2.3,0.6c0.8,0,1.6-0.2,2.3-0.6c56.5-29.1,91.7-86.6,111.2-129.6
		c24.1-53.1,38-113.5,38-165.8C500.5,99.9,499.2,98,497.2,97.3z"/>
	<text transform="matrix(1 0 0 1 184.5602 471.1201)" class="st8 st9 st10">The Kontrol</text>
	
		<image style="display:inline;overflow:visible;" width="800" height="600" xlink:href="../../../../../Users/Kamile e Keuton/Desktop/Brush.jpg"  transform="matrix(1 0 0 1 -65.68 49)">
	</image>
</g>
<g id="Camada_4" class="st0">
	
		<linearGradient id="SVGID_2_" gradientUnits="userSpaceOnUse" x1="236.5493" y1="217.884" x2="375.7684" y2="217.884" gradientTransform="matrix(0.7067 -0.7075 0.7075 0.7067 -64.4666 281.0307)">
		<stop  offset="0.3119" style="stop-color:#38207E"/>
		<stop  offset="0.8608" style="stop-color:#3F3FBC"/>
	</linearGradient>
	<path class="st11" d="M261.7,253.5l1.6-71.9c0.5-24,20.4-43.1,44.4-42.5l0.4,0c24.1,0.5,43.2,20.6,42.5,44.6l-1.9,71.9
		c-0.7,24.4-21.3,43.5-45.8,42.3h0C279.4,296.6,261.2,277,261.7,253.5z"/>
</g>
<g id="Camada_5" class="st0">
	<circle class="st12" cx="350.6" cy="346.9" r="340.8"/>
</g>
<g id="Camada_3">
	<path class="st0" d="M296.8,352.4l-0.2-44.2c0-6.3-11.7-11.6-26.1-11.8h0c-14.5-0.2-26.3,4.9-26.4,11.2l-0.5,44.2
		c-0.1,6.4,11.6,11.7,26,11.8l0.7,0C284.9,363.9,296.8,358.8,296.8,352.4z"/>
	<ellipse class="st0" cx="432.1" cy="98.9" rx="37" ry="26.2"/>
	<path class="st13" d="M394.9,94.3v110.2c0,2,0.4,3.9,1.3,5.7c2.9,5.6,8.6,9.1,14.5,8.9c5.5-0.2,50-44.7,71.5-65.8
		c1.9-1.8,3.1-4.2,3.6-6.8c1.6-9,3.5-30.3-11-47.7c-6.1-7.3-13.2-11.6-19-14.3c-4.5-2-9.4-3-14.4-3l-33.8,0
		C400.6,81.5,394.9,87.3,394.9,94.3z"/>
	<path class="st14" d="M412.1,348.4l35.3,33.4c19.2,15.8,21.5,44.2,6.5,61.9c-13.7,16.2-38.8,19.8-57.6,7.2
		c-15.7-14.4-31.5-28.8-47.2-43.2l59.5-62.6L412.1,348.4z"/>
	
		<linearGradient id="SVGID_3_" gradientUnits="userSpaceOnUse" x1="167.1433" y1="522.6125" x2="453.0442" y2="215.9942" gradientTransform="matrix(0.9997 2.237899e-02 -2.237899e-02 0.9997 7.8858 -7.8214)">
		<stop  offset="0.3119" style="stop-color:#38207E"/>
		<stop  offset="0.8608" style="stop-color:#3F3FBC"/>
	</linearGradient>
	<path class="st15" d="M465.6,114.3L194.1,373.9c-1.5,1.5-14.3,13.6-33.2,11.1c-18.6-2.4-27.9-17-29-18.9
		c-0.9,39.5-1.8,78.9-2.6,118.4c0.6,4.2,8.1,53.3,54.3,76.4c49.9,25,97.1-4.4,99.4-5.8C388.6,455.1,494.3,355,600.1,255
		c30.5-38,28.7-92.8-3.5-128.1C563.2,90.3,506.3,84.6,465.6,114.3z"/>
	<linearGradient id="SVGID_4_" gradientUnits="userSpaceOnUse" x1="342.8498" y1="77.7312" x2="198.8498" y2="208.7712">
		<stop  offset="0" style="stop-color:#000000"/>
		<stop  offset="1" style="stop-color:#383838"/>
	</linearGradient>
	<path class="st16" d="M131.1,125.1l2.1,221.8c0.1,8,3.1,15.8,8.8,21.4c2.7,2.6,6.1,5,10.5,6.6c0.7,0.2,1.3,0.5,1.9,0.6
		c10.2,3,21.2-0.1,29-7.4c43.1-40.5,86.1-80.9,129.2-121.4c5-5,12.2-13.6,17.7-26C336,208.1,131.1,123.4,131.1,125.1z"/>
</g>
</svg>
