<?xml version="1.0" encoding="utf-8"?>
<!-- Generator: Adobe Illustrator 24.0.0, SVG Export Plug-In . SVG Version: 6.00 Build 0)  -->
<svg version="1.1" id="Camada_1" xmlns="http://www.w3.org/2000/svg" xmlns:xlink="http://www.w3.org/1999/xlink" x="0px" y="0px"
	 viewBox="0 0 1080 720" style="enable-background:new 0 0 1080 720;" xml:space="preserve">
<style type="text/css">
	.st0{display:none;}
	.st1{display:none;opacity:0.42;enable-background:new    ;}
	.st2{display:none;fill:#303030;}
	.st3{fill:url(#SVGID_1_);}
	.st4{fill:url(#SVGID_2_);}
	.st5{font-family:'PGF-Now-ExtraBold';}
	.st6{font-size:107.0099px;}
</style>
<g id="Camada_3">
	<path class="st0" d="M236.7,366.7l-0.2-38c0-5.4-10.1-10-22.5-10.2l0,0c-12.5-0.2-22.6,4.2-22.7,9.6l-0.4,38
		c-0.1,5.5,10,10.1,22.4,10.2h0.6C226.4,376.6,236.7,372.2,236.7,366.7z"/>
	<ellipse class="st0" cx="353.1" cy="148.5" rx="31.8" ry="22.5"/>
	<path class="st1" d="M321.1,144.6v94.8c0,1.7,0.3,3.4,1.1,4.9c2.5,4.8,7.4,7.8,12.5,7.7c4.7-0.2,43-38.5,61.5-56.6
		c1.6-1.5,2.7-3.6,3.1-5.9c1.4-7.7,3-26.1-9.5-41c-5.2-6.3-11.4-10-16.4-12.3c-3.9-1.7-8.1-2.6-12.4-2.6H332
		C326,133.6,321.1,138.6,321.1,144.6z"/>
	<path class="st2" d="M335.9,363.3l30.4,28.7c16.5,13.6,18.5,38,5.6,53.3c-11.8,13.9-33.4,17-49.6,6.2
		c-13.5-12.4-27.1-24.8-40.6-37.2l51.2-53.9L335.9,363.3z"/>
	
		<linearGradient id="SVGID_1_" gradientUnits="userSpaceOnUse" x1="136.3939" y1="210.9348" x2="382.4303" y2="474.7999" gradientTransform="matrix(0.9997 2.237899e-02 2.237899e-02 -0.9997 -19.2629 717.3736)">
		<stop  offset="0.3119" style="stop-color:#38207E"/>
		<stop  offset="0.8608" style="stop-color:#3F3FBC"/>
	</linearGradient>
	<path class="st3" d="M382,161.8L148.3,385.2c-1.3,1.3-12.3,11.7-28.6,9.6c-16-2.1-24-14.6-25-16.3c-0.8,34-1.5,67.9-2.2,101.9
		c0.5,3.6,7,45.9,46.7,65.7c42.9,21.5,83.6-3.8,85.5-5c90.9-86.1,181.8-172.2,272.9-258.3c26.2-32.7,24.7-79.9-3-110.2
		C465.9,141.1,417,136.2,382,161.8z"/>
	
		<linearGradient id="SVGID_2_" gradientUnits="userSpaceOnUse" x1="276.3043" y1="591.6839" x2="152.3828" y2="478.9154" gradientTransform="matrix(1 0 0 -1 0 722)">
		<stop  offset="0" style="stop-color:#000000"/>
		<stop  offset="1" style="stop-color:#383838"/>
	</linearGradient>
	<path class="st4" d="M94.1,171.1L95.9,362c0.1,6.9,2.7,13.6,7.6,18.4c2.3,2.2,5.2,4.3,9,5.7c0.6,0.2,1.1,0.4,1.6,0.5
		c8.8,2.6,18.2-0.1,25-6.4c37.1-34.9,74.1-69.6,111.2-104.5c4.3-4.3,10.5-11.7,15.2-22.4C270.4,242.5,94.1,169.6,94.1,171.1z"/>
</g>
<text transform="matrix(1 0 0 1 411.6699 434.7217)" class="st5 st6">THE KONTROL</text>
</svg>
