<?xml version="1.0" encoding="utf-8"?>
<!-- Generator: Adobe Illustrator 24.0.0, SVG Export Plug-In . SVG Version: 6.00 Build 0)  -->
<svg version="1.1" id="Camada_1" xmlns="http://www.w3.org/2000/svg" xmlns:xlink="http://www.w3.org/1999/xlink" x="0px" y="0px"
	 viewBox="0 0 700 700" style="enable-background:new 0 0 700 700;" xml:space="preserve">
<style type="text/css">
	.st0{display:none;}
	.st1{display:inline;fill:#B253BC;}
	.st2{fill:#E0DB19;}
</style>
<g class="st0">
	<path class="st1" d="M467.1,347.9l9.9,57.6l-51.7-27.2c-1.1-0.5-2.2-0.8-3.4-0.8c-1.2,0-2.3,0.3-3.4,0.8l-51.7,27.2l9.9-57.6
		c0.4-2.4-0.4-4.8-2.2-6.5l-41.8-40.7l57.8-8.4c2.4-0.4,4.4-1.8,5.5-4l25.8-52.4l25.8,52.4c1.1,2.2,3.1,3.6,5.5,4l57.8,8.4
		l-41.8,40.7C467.5,343.1,466.7,345.5,467.1,347.9L467.1,347.9z M417.5,521c-124.3,0-225.4-101.1-225.4-225.4
		c0-84,47.8-161.4,121.3-199.8C189.6,115.1,94.4,225.4,94.4,358c0,146.2,115.6,265.2,257.8,265.2c119.1,0,220.1-82.4,249.3-197.4
		C559.8,484.7,491.3,521,417.5,521L417.5,521z M471.3,87.5c-1.4-0.8-2.6-1.9-3.4-3.4l-11.4-21l-11.5,21c-0.8,1.4-1.9,2.6-3.3,3.4
		l-21,11.5l21,11.4c1.4,0.8,2.5,1.9,3.3,3.4l11.5,21l11.4-21c0.8-1.4,1.9-2.6,3.4-3.4l21-11.4L471.3,87.5z M536.9,192
		c-1.4-0.8-2.6-2-3.4-3.4l-6-11l-6,11c-0.8,1.4-2,2.5-3.4,3.4l-11,6l11,6c1.4,0.8,2.5,1.9,3.4,3.4l6,11l6-11
		c0.8-1.4,1.9-2.6,3.4-3.4l11-6L536.9,192z"/>
</g>
<g>
	<path class="st2" d="M348,153.1c8.1,0,14.6-6.5,14.6-14.6V71.3c0-8.1-6.5-14.6-14.6-14.6c-8.1,0-14.6,6.5-14.6,14.6v67.2
		C333.4,146.6,339.9,153.1,348,153.1L348,153.1z"/>
	<path class="st2" d="M348,546.9c-8.1,0-14.6,6.5-14.6,14.6v67.2c0,8.1,6.5,14.6,14.6,14.6c8.1,0,14.6-6.5,14.6-14.6v-67.2
		C362.6,553.4,356.1,546.9,348,546.9z"/>
	<path class="st2" d="M626.7,335.4h-67.2c-8.1,0-14.6,6.5-14.6,14.6c0,8.1,6.5,14.6,14.6,14.6h67.2c8.1,0,14.6-6.5,14.6-14.6
		C641.3,341.9,634.7,335.4,626.7,335.4z"/>
	<path class="st2" d="M151.1,350c0-8.1-6.5-14.6-14.6-14.6H69.3c-8.1,0-14.6,6.5-14.6,14.6c0,8.1,6.5,14.6,14.6,14.6h67.2
		C144.6,364.6,151.1,358.1,151.1,350z"/>
	<path class="st2" d="M497.5,215.1c3.7,0,7.5-1.4,10.3-4.3l47.5-47.5c5.7-5.7,5.7-14.9,0-20.7c-5.7-5.7-14.9-5.7-20.7,0l-47.5,47.5
		c-5.7,5.7-5.7,14.9,0,20.7C490.1,213.6,493.8,215.1,497.5,215.1L497.5,215.1z"/>
	<path class="st2" d="M188.1,489.2l-47.5,47.5c-5.7,5.7-5.7,14.9,0,20.7c2.9,2.8,6.6,4.3,10.3,4.3c3.7,0,7.5-1.4,10.3-4.3l47.5-47.5
		c5.7-5.7,5.7-14.9,0-20.7C203.1,483.5,193.9,483.5,188.1,489.2L188.1,489.2z"/>
	<path class="st2" d="M507.9,489.2c-5.7-5.7-14.9-5.7-20.7,0c-5.7,5.7-5.7,14.9,0,20.7l47.5,47.5c2.8,2.8,6.6,4.3,10.3,4.3
		s7.5-1.4,10.3-4.3c5.7-5.7,5.7-14.9,0-20.7L507.9,489.2z"/>
	<path class="st2" d="M188.1,210.8c2.9,2.8,6.6,4.3,10.3,4.3c3.7,0,7.5-1.4,10.3-4.3c5.7-5.7,5.7-14.9,0-20.7l-47.5-47.5
		c-5.7-5.7-14.9-5.7-20.7,0c-5.7,5.7-5.7,14.9,0,20.7L188.1,210.8z"/>
	<path class="st2" d="M348,209.7c-77.5,0-140.3,62.8-140.3,140.3S270.5,490.3,348,490.3c77.5,0,140.3-62.8,140.3-140.3
		S425.5,209.7,348,209.7z M437,354.5h-0.2c-3.9,0-7.2-3.1-7.3-7.1c-1.4-44.3-37.1-79-81.5-79c-4,0-7.3-3.3-7.3-7.3
		c0-4,3.3-7.3,7.3-7.3c52.3,0,94.5,40.9,96.1,93.2C444.2,351,441,354.4,437,354.5L437,354.5z"/>
</g>
</svg>
