<?xml version="1.0" encoding="utf-8"?>
<!-- Generator: Adobe Illustrator 24.0.0, SVG Export Plug-In . SVG Version: 6.00 Build 0)  -->
<svg version="1.1" id="Camada_1" xmlns="http://www.w3.org/2000/svg" xmlns:xlink="http://www.w3.org/1999/xlink" x="0px" y="0px"
	 viewBox="0 0 700 700" style="enable-background:new 0 0 700 700;" xml:space="preserve">
<style type="text/css">
	.st0{display:none;}
	.st1{display:inline;fill:#E0DB19;}
	.st2{fill:#3A3A3A;}
	.st3{fill:#B253BC;}
</style>
<g class="st0">
	<path class="st1" d="M348,153.1c8.1,0,14.6-6.5,14.6-14.6V71.3c0-8.1-6.5-14.6-14.6-14.6c-8.1,0-14.6,6.5-14.6,14.6v67.2
		C333.4,146.6,339.9,153.1,348,153.1L348,153.1z"/>
	<path class="st1" d="M348,546.9c-8.1,0-14.6,6.5-14.6,14.6v67.2c0,8.1,6.5,14.6,14.6,14.6c8.1,0,14.6-6.5,14.6-14.6v-67.2
		C362.6,553.4,356.1,546.9,348,546.9z"/>
	<path class="st1" d="M626.7,335.4h-67.2c-8.1,0-14.6,6.5-14.6,14.6c0,8.1,6.5,14.6,14.6,14.6h67.2c8.1,0,14.6-6.5,14.6-14.6
		C641.3,341.9,634.7,335.4,626.7,335.4z"/>
	<path class="st1" d="M151.1,350c0-8.1-6.5-14.6-14.6-14.6H69.3c-8.1,0-14.6,6.5-14.6,14.6c0,8.1,6.5,14.6,14.6,14.6h67.2
		C144.6,364.6,151.1,358.1,151.1,350z"/>
	<path class="st1" d="M497.5,215.1c3.7,0,7.5-1.4,10.3-4.3l47.5-47.5c5.7-5.7,5.7-14.9,0-20.7c-5.7-5.7-14.9-5.7-20.7,0l-47.5,47.5
		c-5.7,5.7-5.7,14.9,0,20.7C490.1,213.6,493.8,215.1,497.5,215.1L497.5,215.1z"/>
	<path class="st1" d="M188.1,489.2l-47.5,47.5c-5.7,5.7-5.7,14.9,0,20.7c2.9,2.8,6.6,4.3,10.3,4.3c3.7,0,7.5-1.4,10.3-4.3l47.5-47.5
		c5.7-5.7,5.7-14.9,0-20.7C203.1,483.5,193.9,483.5,188.1,489.2L188.1,489.2z"/>
	<path class="st1" d="M507.9,489.2c-5.7-5.7-14.9-5.7-20.7,0c-5.7,5.7-5.7,14.9,0,20.7l47.5,47.5c2.8,2.8,6.6,4.3,10.3,4.3
		s7.5-1.4,10.3-4.3c5.7-5.7,5.7-14.9,0-20.7L507.9,489.2z"/>
	<path class="st1" d="M188.1,210.8c2.9,2.8,6.6,4.3,10.3,4.3c3.7,0,7.5-1.4,10.3-4.3c5.7-5.7,5.7-14.9,0-20.7l-47.5-47.5
		c-5.7-5.7-14.9-5.7-20.7,0c-5.7,5.7-5.7,14.9,0,20.7L188.1,210.8z"/>
	<path class="st1" d="M348,209.7c-77.5,0-140.3,62.8-140.3,140.3S270.5,490.3,348,490.3c77.5,0,140.3-62.8,140.3-140.3
		S425.5,209.7,348,209.7z M437,354.5h-0.2c-3.9,0-7.2-3.1-7.3-7.1c-1.4-44.3-37.1-79-81.5-79c-4,0-7.3-3.3-7.3-7.3
		c0-4,3.3-7.3,7.3-7.3c52.3,0,94.5,40.9,96.1,93.2C444.2,351,441,354.4,437,354.5L437,354.5z"/>
</g>
<circle class="st2" cx="349.2" cy="346" r="341.2"/>
<g>
	<path class="st3" d="M398.4,460.3c-88,0-159.6-71.6-159.6-159.6c0-59.5,33.9-114.3,85.9-141.5c-87.6,13.7-155,91.7-155,185.7
		c0,103.5,81.9,187.8,182.6,187.8c84.3,0,155.9-58.4,176.5-139.8C499.2,434.6,450.7,460.3,398.4,460.3L398.4,460.3z"/>
</g>
</svg>
